<svg xmlns="http://www.w3.org/2000/svg" viewBox="0 0 282 282"><defs><style>.cls-1{fill:#fefefe;}.cls-2{fill:#025dfe;}.cls-3{fill:#0046fe;}.cls-4{fill:#0055fe;}.cls-5{fill:#004dfe;}.cls-6{fill:#00bafe;}.cls-7{fill:#00a9fe;}.cls-8{fill:#00a2fe;}.cls-9{fill:#003efe;}.cls-10{fill:#0198fe;}.cls-11{fill:#00c6fe;}.cls-12{fill:#00b0fe;}.cls-13{fill:#02b9fe;}.cls-14{fill:#0051fe;}.cls-15{fill:#018efe;}.cls-16{fill:#00d0fe;}.cls-17{fill:#0239fe;}.cls-18{fill:#02c2fe;}.cls-19{fill:#02d8fe;}.cls-20{fill:#0284fe;}.cls-21{fill:#036bfe;}.cls-22{fill:#0368fe;}.cls-23{fill:#0264fe;}.cls-24{fill:#056ffe;}</style></defs><g id="Layer_2" data-name="Layer 2"><g id="Layer_1-2" data-name="Layer 1"><path class="cls-1" d="M282,282H0V0H282ZM123.26,169l-19.14-8.39c-10.9-6.19-21.07-13.33-29.66-22.5l.27-.74h46.1a22.59,22.59,0,0,1-4.56-.58c-4.68-.84-9.38-1.51-14-2.49a124.57,124.57,0,0,1-31.87-11.62c-5.32-3.91-11-7.45-15.88-11.81A61.62,61.62,0,0,1,36.12,82.24c.86,17,6.42,31.83,19.54,43.28-.18,2.25-.35,4.5-.53,6.75l-.45,4.51,0,7.88,1.62,13.51q2,6.75,3.92,13.52c1.9,6.72,5.49,12.58,9.4,18.28a83.38,83.38,0,0,0,39,31.12l13.51,4,13.51,1.7,7.32.06,5.07-.12,6.75-1,12.13-2.4-.13-.77a37.83,37.83,0,0,1-18.51-10.7l5.36-.67c7.7-.12,15.22-2.11,18.57-4.61l-31.4-11c-3.75-2-7.58-3.91-11.22-6.09-6.92-4.14-13.82-8.34-19.25-14.47l-.07,0,5.68,0,11.26.51,21-.36Zm72.39-81,9.79-2.48a9.5,9.5,0,0,0-.91-1.17c-3.85-3.67-7.47-7.63-11.63-10.91C186,68,178.49,63.46,170,60.85l-18-4.49-16.33-.6L121.94,57.5l-9.37,2.72-7.35,2.71L97.39,67l-8.48,5.54L80.4,79.9,70.05,91l30.7,10.18,22,7.37,21.39,7.31,16.32,5.61,15.2,5.07L193,132.34c5.91,2.13,11.54,4.74,16.24,9,5.67,5.18,9.95,11.22,10.79,19.05.41,3.84.07,7.77.07,12.48,3.07-9.21,3.85-17.78,2.09-26.56-.14-.73-.28-1.45-.43-2.18-3.71-18.93-17.83-30.53-36-34.58l-15.25-2.29-11.77-.45,0,0,4.71-6.58,8.72-5.68,14.07-1c.6-.33,1.23-.63,1.81-1C190.65,91.1,193.15,89.54,195.65,88Z"/><path class="cls-2" d="M110.34,175.05c5.43,6.13,12.33,10.33,19.25,14.47,3.64,2.18,7.47,4.07,11.22,6.09a5.88,5.88,0,0,0,.82,2c2.75,2.87,5.67,5.58,8.35,8.5a50.53,50.53,0,0,1,3.66,5.12l-5.36.67a37.83,37.83,0,0,0,18.51,10.7l.13.77-12.13,2.4a16.1,16.1,0,0,0-1.66-2.49q-14-14.31-28-28.57-19.45-19.8-39-39.55c-8.54-8.68-17-17.44-25.6-26.08a35,35,0,0,0-4.92-3.52C42.54,114.07,37,99.23,36.12,82.24a61.62,61.62,0,0,0,18.37,28.63c4.92,4.36,10.56,7.9,15.88,11.81a8.74,8.74,0,0,0,1,1.88c3,3.28,6.14,6.47,9.12,9.78a14.46,14.46,0,0,1,1.65,3H74.73l-.27.74c8.59,9.17,18.76,16.31,29.66,22.5.34.92.42,2.07,1,2.72,3,3.16,6.12,6.16,9.14,9.27a15.63,15.63,0,0,1,1.65,2.47l-5.68,0c0-.13,0-.26,0-.38h-.24Z"/><path class="cls-3" d="M135.65,226.8l-13.51-1.7a7.63,7.63,0,0,0-.92-2.22c-2.41-2.73-4.86-5.42-7.41-8Q95.93,196.63,78,178.48,68.61,169,59.11,159.64a11,11,0,0,0-2.84-1.47l-1.62-13.51c2.37,2,4.91,3.84,7.08,6.05C75,164.12,88.12,177.64,101.32,191.1q16.41,16.72,32.84,33.43A14.11,14.11,0,0,1,135.65,226.8Z"/><path class="cls-4" d="M55.66,125.52A35,35,0,0,1,60.58,129c8.59,8.64,17.06,17.4,25.6,26.08q19.45,19.8,39,39.55,14,14.25,28,28.57a16.1,16.1,0,0,1,1.66,2.49l-6.75,1a12.61,12.61,0,0,0-1.55-2.8q-14.07-14.48-28.24-28.85Q99.2,175.73,80.12,156.4,68.84,145,57.42,133.73a12.41,12.41,0,0,0-2.29-1.46C55.31,130,55.48,127.77,55.66,125.52Z"/><path class="cls-5" d="M135.65,226.8a14.11,14.11,0,0,0-1.49-2.27q-16.39-16.74-32.84-33.43c-13.2-13.46-26.35-27-39.59-40.39-2.17-2.21-4.71-4-7.08-6.05l0-7.88a16.53,16.53,0,0,1,2.45,1.72c5.29,5.42,10.5,10.92,15.81,16.32q20.61,21,41.28,41.85c8.18,8.26,16.46,16.4,24.61,24.68a51.46,51.46,0,0,1,4.14,5.51Z"/><path class="cls-6" d="M172.26,94.63l-8.72,5.68c-1.71-1.55-3.5-3-5.12-4.67Q141,78,123.65,60.28a14.46,14.46,0,0,1-1.71-2.79l13.71-1.73a5.15,5.15,0,0,0,.71,1.47c5.48,5.73,11,11.46,16.53,17.11,6,6.1,12.1,12.11,18.13,18.2A10,10,0,0,1,172.26,94.63Z"/><path class="cls-7" d="M175.62,126.57l-15.2-5.07c-.51-1.14-.74-2.54-1.56-3.37C147.3,106.44,135.63,94.86,124,83.19c-5.93-6-11.75-12.07-17.59-18.15a10,10,0,0,1-1.23-2.11l7.35-2.71A13.28,13.28,0,0,0,114,62.5q13.06,13.43,26.18,26.77,7.88,8,15.9,15.86a15.77,15.77,0,0,0,2.71,1.76l0,0a15.59,15.59,0,0,0,1.74,2.7c4.4,4.49,8.91,8.87,13.26,13.41C174.68,123.89,175,125.35,175.62,126.57Z"/><path class="cls-8" d="M105.22,62.93A10,10,0,0,0,106.45,65c5.84,6.08,11.66,12.17,17.59,18.15,11.59,11.67,23.26,23.25,34.82,34.94.82.83,1,2.23,1.56,3.37l-16.32-5.61a12,12,0,0,0-1.52-2.81q-20.36-20.74-40.78-41.4c-1.5-1.53-2.94-3.11-4.41-4.67Z"/><path class="cls-9" d="M56.27,158.17a11,11,0,0,1,2.84,1.47Q68.62,169,78,178.48q17.94,18.15,35.82,36.39c2.55,2.59,5,5.28,7.41,8a7.63,7.63,0,0,1,.92,2.22l-13.51-4a14.22,14.22,0,0,0-1.75-3c-6.9-7-13.86-13.91-20.8-20.85-3.6-3.61-7.22-7.19-10.77-10.83-4.57-4.68-9.07-9.41-13.63-14.08a4.49,4.49,0,0,0-1.49-.65Q58.24,164.93,56.27,158.17Z"/><path class="cls-10" d="M97.39,67c1.47,1.56,2.91,3.14,4.41,4.67q20.4,20.7,40.78,41.4a12,12,0,0,1,1.52,2.81l-21.39-7.31a15.41,15.41,0,0,0-1.78-3.07c-6.46-6.75-13-13.43-19.5-20.12L88.91,72.55Z"/><path class="cls-11" d="M172.26,94.63A10,10,0,0,0,171,92.54c-6-6.09-12.13-12.1-18.13-18.2-5.57-5.65-11-11.38-16.53-17.11a5.15,5.15,0,0,1-.71-1.47l16.33.6A7.61,7.61,0,0,0,152.9,58c3.84,4.08,7.66,8.18,11.59,12.17,6.51,6.6,13.13,13.08,19.61,19.7a18.05,18.05,0,0,1,2.23,3.74Z"/><path class="cls-12" d="M158.83,106.89a15.77,15.77,0,0,1-2.71-1.76q-8-7.87-15.9-15.86Q127.08,75.94,114,62.5a13.28,13.28,0,0,1-1.47-2.28l9.37-2.72a14.69,14.69,0,0,0,1.71,2.78Q141,78,158.42,95.64c1.62,1.64,3.41,3.12,5.12,4.67Z"/><path class="cls-13" d="M170.56,107.3l15.25,2.29a18.6,18.6,0,0,0,2.18,3.74c3,3.24,6.24,6.31,9.37,9.45,7.35,7.35,14.68,14.71,22.07,22a11.68,11.68,0,0,0,2.8,1.56c1.76,8.78,1,17.35-2.09,26.56,0-4.71.34-8.64-.07-12.48-.84-7.83-5.12-13.87-10.79-19.05-4.7-4.3-10.33-6.91-16.24-9a27.28,27.28,0,0,0-2.87-4.3c-5.92-6.06-12-12-17.91-18A13.62,13.62,0,0,1,170.56,107.3Z"/><path class="cls-14" d="M143,226.86a51.46,51.46,0,0,0-4.14-5.51c-8.15-8.28-16.43-16.42-24.61-24.68q-20.67-20.88-41.28-41.85c-5.31-5.4-10.52-10.9-15.81-16.32a16.53,16.53,0,0,0-2.45-1.72l.45-4.51a12.41,12.41,0,0,1,2.29,1.46Q68.81,145,80.12,156.4q19.09,19.31,38.13,38.69,14.15,14.39,28.24,28.85a12.61,12.61,0,0,1,1.55,2.8Z"/><path class="cls-15" d="M88.91,72.55l12.52,12.84c6.51,6.69,13,13.37,19.5,20.12a15.41,15.41,0,0,1,1.78,3.07l-22-7.37c-1.49-2-2.85-4.18-4.52-6-2.32-2.59-4.84-5-7.36-7.45-2.78-2.65-5.64-5.21-8.47-7.81Z"/><path class="cls-16" d="M186.33,93.63a18.05,18.05,0,0,0-2.23-3.74c-6.48-6.62-13.1-13.1-19.61-19.7-3.93-4-7.75-8.09-11.59-12.17a7.61,7.61,0,0,1-.92-1.66l18,4.49a13.52,13.52,0,0,0,1.71,3c5.54,5.65,11.17,11.22,16.76,16.83,2.41,2.42,4.79,4.87,7.19,7.31-2.5,1.55-5,3.11-7.51,4.65C187.56,93,186.93,93.3,186.33,93.63Z"/><path class="cls-17" d="M60.19,171.69a4.49,4.49,0,0,1,1.49.65c4.56,4.67,9.06,9.4,13.63,14.08,3.55,3.64,7.17,7.22,10.77,10.83,6.94,6.94,13.9,13.86,20.8,20.85a14.22,14.22,0,0,1,1.75,3,83.38,83.38,0,0,1-39-31.12C65.68,184.27,62.09,178.41,60.19,171.69Z"/><path class="cls-18" d="M222.23,146.35a11.68,11.68,0,0,1-2.8-1.56c-7.39-7.3-14.72-14.66-22.07-22-3.13-3.14-6.34-6.21-9.37-9.45a18.6,18.6,0,0,1-2.18-3.74c18.16,4,32.28,15.65,36,34.58C222,144.9,222.09,145.62,222.23,146.35Z"/><path class="cls-19" d="M195.65,88c-2.4-2.44-4.78-4.89-7.19-7.31-5.59-5.61-11.22-11.18-16.76-16.83a13.52,13.52,0,0,1-1.71-3c8.5,2.61,16,7.14,22.91,12.58,4.16,3.28,7.78,7.24,11.63,10.91a9.5,9.5,0,0,1,.91,1.17Z"/><path class="cls-12" d="M170.56,107.3a13.62,13.62,0,0,0,1.7,2.71c6,6,12,12,17.91,18a27.28,27.28,0,0,1,2.87,4.3l-17.42-5.77c-.6-1.22-.94-2.68-1.83-3.61-4.35-4.54-8.86-8.92-13.26-13.41a15.59,15.59,0,0,1-1.74-2.7Z"/><path class="cls-20" d="M80.4,79.9c2.83,2.6,5.69,5.16,8.47,7.81,2.52,2.42,5,4.86,7.36,7.45,1.67,1.87,3,4,4.52,6L70.05,91Z"/><path class="cls-21" d="M82.18,137.37a14.46,14.46,0,0,0-1.65-3c-3-3.31-6.1-6.5-9.12-9.78a8.74,8.74,0,0,1-1-1.88,124.57,124.57,0,0,0,31.87,11.62c4.65,1,9.35,1.65,14,2.49a22.59,22.59,0,0,0,4.56.58Z"/><path class="cls-22" d="M153.64,211.19a50.53,50.53,0,0,0-3.66-5.12c-2.68-2.92-5.6-5.63-8.35-8.5a5.88,5.88,0,0,1-.82-2l31.4,11C168.86,209.08,161.34,211.07,153.64,211.19Z"/><path class="cls-23" d="M116,175.07a15.63,15.63,0,0,0-1.65-2.47c-3-3.11-6.16-6.11-9.14-9.27-.62-.65-.7-1.8-1-2.72L123.26,169c.71,1.12,1.43,2.24,2.11,3.37s1.23,2.14,1.84,3.21Z"/><path class="cls-24" d="M127.21,175.58c-.61-1.07-1.21-2.15-1.84-3.21s-1.4-2.25-2.11-3.37l24.93,6.22Z"/><path class="cls-1" d="M110.34,175.05l-.29-.33h.24c0,.12,0,.25,0,.38Z"/></g></g></svg>